<svg width="27" height="27" viewBox="0 0 27 27" fill="none" xmlns="http://www.w3.org/2000/svg">
<path fill-rule="evenodd" clip-rule="evenodd" d="M13.4955 0C10.2906 0.00171687 7.19076 1.17218 4.75026 3.30211C2.30978 5.43205 0.687828 8.38252 0.17441 11.626C-0.339005 14.8695 0.289593 18.1944 1.94782 21.0064C3.60604 23.8183 6.18577 25.9338 9.2257 26.9746C9.89633 27.1029 10.149 26.6743 10.149 26.3099C10.149 25.9455 10.1355 24.8889 10.1311 23.7337C6.37539 24.5703 5.58178 22.0995 5.58178 22.0995C4.96925 20.4951 4.08398 20.0734 4.08398 20.0734C2.85891 19.2162 4.17565 19.2322 4.17565 19.2322C5.53261 19.3308 6.24573 20.6601 6.24573 20.6601C7.44844 22.7757 9.40453 22.1637 10.1735 21.8061C10.2943 20.9099 10.6453 20.3003 11.032 19.9542C8.03194 19.6058 4.87983 18.4186 4.87983 13.1148C4.86123 11.7394 5.35907 10.4092 6.27032 9.39953C6.13171 9.05111 5.66899 7.64386 6.40222 5.73233C6.40222 5.73233 7.53563 5.36099 10.1154 7.15107C12.3282 6.53061 14.6628 6.53061 16.8757 7.15107C19.4532 5.36099 20.5844 5.73233 20.5844 5.73233C21.3198 7.63927 20.8571 9.04653 20.7185 9.39953C21.6327 10.4094 22.1315 11.7418 22.1112 13.1194C22.1112 18.4346 18.9525 19.6058 15.9479 19.9473C16.4308 20.3782 16.8622 21.2194 16.8622 22.512C16.8622 24.364 16.8466 25.8538 16.8466 26.3099C16.8466 26.6789 17.0903 27.1098 17.7743 26.9746C20.8146 25.9337 23.3946 23.8178 25.0527 21.0054C26.711 18.193 27.3392 14.8675 26.8252 11.6238C26.3113 8.37996 24.6885 5.42944 22.2472 3.29988C19.8059 1.17032 16.7053 0.000626427 13.5 0H13.4955Z" fill="black"/>
<path d="M5.10617 19.8751C5.07711 19.9439 4.9698 19.9644 4.88262 19.9163C4.79543 19.8682 4.7306 19.7788 4.7619 19.7077C4.7932 19.6367 4.89827 19.6183 4.98546 19.6665C5.07264 19.7146 5.1397 19.8063 5.10617 19.8751Z" fill="black"/>
<path d="M5.65283 20.4996C5.60652 20.5235 5.55356 20.5301 5.50299 20.5184C5.45242 20.5067 5.4074 20.4774 5.37562 20.4354C5.28843 20.3391 5.27053 20.2062 5.3376 20.1466C5.40467 20.087 5.5254 20.1145 5.61258 20.2108C5.69974 20.307 5.71988 20.44 5.65283 20.4996Z" fill="black"/>
<path d="M6.18665 21.2959C6.10391 21.3555 5.96311 21.2959 5.88486 21.1767C5.86321 21.1553 5.84599 21.1297 5.83424 21.1013C5.82248 21.073 5.81641 21.0425 5.81641 21.0117C5.81641 20.9809 5.82248 20.9504 5.83424 20.9221C5.84599 20.8937 5.86321 20.8681 5.88486 20.8467C5.96755 20.7893 6.10841 20.8467 6.18665 20.9636C6.2649 21.0805 6.26715 21.2363 6.18665 21.2959Z" fill="black"/>
<path d="M6.90822 22.0665C6.83447 22.1513 6.68468 22.1283 6.56171 22.0137C6.43875 21.8991 6.40972 21.7433 6.48347 21.6608C6.55727 21.5783 6.70701 21.6012 6.83447 21.7135C6.96188 21.8258 6.98646 21.9839 6.90822 22.0665Z" fill="black"/>
<path d="M7.91961 22.5148C7.88609 22.6225 7.7341 22.6706 7.58205 22.6247C7.43006 22.5789 7.32948 22.4506 7.35851 22.3405C7.38759 22.2306 7.54183 22.1801 7.69607 22.2306C7.85031 22.281 7.9487 22.4024 7.91961 22.5148Z" fill="black"/>
<path d="M9.02626 22.5914C9.02626 22.7037 8.90105 22.7999 8.74011 22.8023C8.57912 22.8045 8.44727 22.7129 8.44727 22.6005C8.44727 22.4882 8.57242 22.392 8.73336 22.3897C8.89435 22.3874 9.02626 22.4768 9.02626 22.5914Z" fill="black"/>
<path d="M10.0534 22.4161C10.0735 22.5283 9.96168 22.6452 9.80075 22.6727C9.63981 22.7003 9.49896 22.6338 9.47882 22.5238C9.45874 22.4137 9.57496 22.2945 9.73145 22.2648C9.88794 22.235 10.0332 22.3037 10.0534 22.4161Z" fill="black"/>
</svg>
