<svg width="24" height="24" viewBox="0 0 24 24" fill="none" xmlns="http://www.w3.org/2000/svg">
<g clip-path="url(#clip0_1292_358)">
<mask id="mask0_1292_358" style="mask-type:luminance" maskUnits="userSpaceOnUse" x="0" y="0" width="24" height="24">
<path d="M24 0H0V24H24V0Z" fill="white"/>
</mask>
<g mask="url(#mask0_1292_358)">
<path d="M22.2234 0H1.77188C0.792185 0 0 0.77344 0 1.72969V22.2656C0 23.2219 0.792185 24 1.77188 24H22.2234C23.2031 24 24 23.2219 24 22.2703V1.72969C24 0.77344 23.2031 0 22.2234 0ZM7.1203 20.4515H3.55782V8.9953H7.1203V20.4515ZM5.33905 7.4344C4.19531 7.4344 3.27187 6.51095 3.27187 5.37185C3.27187 4.23281 4.19531 3.30938 5.33905 3.30938C6.47815 3.30938 7.40155 4.23281 7.40155 5.37185C7.40155 6.50625 6.47815 7.4344 5.33905 7.4344ZM20.4515 20.4515H16.8937V14.8828C16.8937 13.5563 16.8703 11.8453 15.0422 11.8453C13.1906 11.8453 12.9094 13.2938 12.9094 14.7891V20.4515H9.35625V8.9953H12.7688V10.561H12.8156C13.2891 9.66095 14.4515 8.7094 16.1812 8.7094C19.7859 8.7094 20.4515 11.0813 20.4515 14.1657V20.4515Z" fill="black"/>
</g>
</g>
<defs>
<clipPath id="clip0_1292_358">
<rect width="24" height="24" fill="white"/>
</clipPath>
</defs>
</svg>
